<svg xmlns="http://www.w3.org/2000/svg" viewBox="0 0 80 100" fill="none" aria-hidden="true">
  <!-- Silhueta simplificada do Piauí (orientaçăo N–S) -->
  <path
    fill="#1F6E4F"
    d="M38 4c6 1 11 4 14 9 3 4 4 9 3 14 0 3 1 6 3 8 3 4 7 7 9 12 2 4 2 9 0 13-2 5-6 9-11 12-5 3-11 5-17 5-5 0-10-1-14-4-4-3-7-7-8-12-1-4 0-8-2-11-2-4-6-7-8-11-2-5-2-10 0-15 2-5 6-9 11-12 5-3 11-5 17-6 1 0 2 0 3-2z"
  />
  <path
    fill="#F47700"
    opacity="0.95"
    d="M40 22c4 0 7 3 8 6 1 4-1 8-4 10-3 2-7 2-10 0-3-2-5-6-4-9 1-4 5-7 10-7z"
  />
  <circle cx="52" cy="58" r="3" fill="#FFDD31"/>
</svg>
